# Blender 5.0.1
# www.blender.org
mtllib Brownbarrel.mtl
o Cylinder.002
v 0.000000 0.053710 -0.809910
v 0.309939 0.053710 -0.748259
v 0.309939 2.053710 -0.748259
v 0.572693 0.053710 -0.572693
v 0.572693 2.053710 -0.572693
v 0.748259 0.053710 -0.309939
v 0.748259 2.053710 -0.309939
v 0.809910 0.053710 0.000000
v 0.748259 0.053710 0.309939
v 0.748259 2.053710 0.309939
v 0.572693 0.053710 0.572693
v 0.309939 0.053710 0.748259
v 0.309939 2.053710 0.748259
v 0.000000 2.053710 0.809910
v -0.309939 0.053710 0.748259
v -0.572693 0.053710 0.572693
v -0.572693 2.053710 0.572693
v -0.748259 0.053710 0.309939
v -0.748259 2.053710 0.309939
v -0.809910 0.053710 0.000000
v -0.809910 2.053710 0.000000
v -0.748259 0.053710 -0.309939
v -0.748259 2.053710 -0.309939
v -0.572693 0.053710 -0.572693
v -0.572693 2.053710 -0.572693
v -0.309939 0.053710 -0.748259
v -0.309939 2.053710 -0.748259
v -0.000000 0.740383 -1.362391
v -0.000000 0.481586 -1.284057
v -0.000000 1.625835 -1.284057
v -0.000000 1.367038 -1.362391
v 0.521365 1.367038 -1.258685
v 0.491387 1.625835 -1.186314
v 0.491387 0.481586 -1.186314
v 0.521365 0.740383 -1.258685
v 0.963356 1.367038 -0.963356
v 0.907965 1.625835 -0.907965
v 0.907965 0.481586 -0.907965
v 0.963356 0.740383 -0.963356
v 1.258685 1.367038 -0.521365
v 1.186314 1.625835 -0.491387
v 1.186314 0.481586 -0.491387
v 1.258685 0.740383 -0.521365
v 1.362391 1.367038 0.000000
v 1.284057 1.625835 0.000000
v 1.284057 0.481586 0.000000
v 1.362391 0.740383 0.000000
v 1.258685 1.367038 0.521365
v 1.186314 1.625835 0.491387
v 1.186314 0.481586 0.491387
v 1.258685 0.740383 0.521365
v 0.963356 1.367038 0.963356
v 0.907965 1.625835 0.907965
v 0.907965 0.481586 0.907965
v 0.963356 0.740383 0.963356
v 0.521365 1.367038 1.258685
v 0.491387 1.625835 1.186314
v 0.491387 0.481586 1.186314
v 0.521365 0.740383 1.258685
v -0.000000 1.367038 1.362391
v -0.000000 1.625835 1.284057
v -0.000000 0.481586 1.284057
v -0.000000 0.740383 1.362391
v -0.521365 1.367038 1.258685
v -0.491387 1.625835 1.186314
v -0.491387 0.481586 1.186314
v -0.521365 0.740383 1.258685
v -0.963356 1.367038 0.963356
v -0.907965 1.625835 0.907965
v -0.907965 0.481586 0.907965
v -0.963356 0.740383 0.963356
v -1.258685 1.367038 0.521365
v -1.186314 1.625835 0.491387
v -1.186314 0.481586 0.491387
v -1.258685 0.740383 0.521365
v -1.362391 1.367038 0.000000
v -1.284057 1.625835 0.000000
v -1.284057 0.481586 0.000000
v -1.362391 0.740383 0.000000
v -1.258685 1.367038 -0.521365
v -1.186314 1.625835 -0.491387
v -1.186314 0.481586 -0.491387
v -1.258685 0.740383 -0.521365
v -0.963356 1.367038 -0.963356
v -0.907965 1.625835 -0.907965
v -0.907965 0.481586 -0.907965
v -0.963356 0.740383 -0.963356
v -0.521365 1.367038 -1.258685
v -0.491387 1.625835 -1.186314
v -0.491387 0.481586 -1.186314
v -0.521365 0.740383 -1.258685
v -0.000000 0.740383 -1.362391
v -0.000000 0.481586 -1.284057
v -0.000000 1.625835 -1.284057
v -0.000000 1.367038 -1.362391
v 0.521365 1.367038 -1.258685
v 0.491387 1.625835 -1.186314
v 0.491387 0.481586 -1.186314
v 0.521365 0.740383 -1.258685
v 0.963356 1.367038 -0.963356
v 0.907965 1.625835 -0.907965
v 0.907965 0.481586 -0.907965
v 0.963356 0.740383 -0.963356
v 1.258685 1.367038 -0.521365
v 1.186314 1.625835 -0.491387
v 1.186314 0.481586 -0.491387
v 1.258685 0.740383 -0.521365
v 1.362391 1.367038 0.000000
v 1.284057 1.625835 0.000000
v 1.284057 0.481586 0.000000
v 1.362391 0.740383 0.000000
v 1.258685 1.367038 0.521365
v 1.186314 1.625835 0.491387
v 1.186314 0.481586 0.491387
v 1.258685 0.740383 0.521365
v 0.963356 1.367038 0.963356
v 0.907965 1.625835 0.907965
v 0.907965 0.481586 0.907965
v 0.963356 0.740383 0.963356
v 0.521365 1.367038 1.258685
v 0.491387 1.625835 1.186314
v 0.491387 0.481586 1.186314
v 0.521365 0.740383 1.258685
v -0.000000 1.367038 1.362391
v -0.000000 1.625835 1.284057
v -0.000000 0.481586 1.284057
v -0.000000 0.740383 1.362391
v -0.521365 1.367038 1.258685
v -0.491387 1.625835 1.186314
v -0.491387 0.481586 1.186314
v -0.521365 0.740383 1.258685
v -0.963356 1.367038 0.963356
v -0.907965 1.625835 0.907965
v -0.907965 0.481586 0.907965
v -0.963356 0.740383 0.963356
v -1.258685 1.367038 0.521365
v -1.186314 1.625835 0.491387
v -1.186314 0.481586 0.491387
v -1.258685 0.740383 0.521365
v -1.362391 1.367038 0.000000
v -1.284057 1.625835 0.000000
v -1.284057 0.481586 0.000000
v -1.362391 0.740383 0.000000
v -1.258685 1.367038 -0.521365
v -1.186314 1.625835 -0.491387
v -1.186314 0.481586 -0.491387
v -1.258685 0.740383 -0.521365
v -0.963356 1.367038 -0.963356
v -0.907965 1.625835 -0.907965
v -0.907965 0.481586 -0.907965
v -0.963356 0.740383 -0.963356
v -0.521365 1.367038 -1.258685
v -0.491387 1.625835 -1.186314
v -0.491387 0.481586 -1.186314
v -0.521365 0.740383 -1.258685
v -0.000000 0.740383 -1.362391
v -0.000000 0.481586 -1.284057
v -0.000000 1.625835 -1.284057
v -0.000000 1.367038 -1.362391
v 0.521365 1.367038 -1.258685
v 0.491387 1.625835 -1.186314
v 0.491387 0.481586 -1.186314
v 0.521365 0.740383 -1.258685
v 0.963356 1.367038 -0.963356
v 0.907965 1.625835 -0.907965
v 0.907965 0.481586 -0.907965
v 0.963356 0.740383 -0.963356
v 1.258685 1.367038 -0.521365
v 1.186314 1.625835 -0.491387
v 1.186314 0.481586 -0.491387
v 1.258685 0.740383 -0.521365
v 1.362391 1.367038 0.000000
v 1.284057 1.625835 0.000000
v 1.284057 0.481586 0.000000
v 1.362391 0.740383 0.000000
v 1.258685 1.367038 0.521365
v 1.186314 1.625835 0.491387
v 1.186314 0.481586 0.491387
v 1.258685 0.740383 0.521365
v 0.963356 1.367038 0.963356
v 0.907965 1.625835 0.907965
v 0.907965 0.481586 0.907965
v 0.963356 0.740383 0.963356
v 0.521365 1.367038 1.258685
v 0.491387 1.625835 1.186314
v 0.491387 0.481586 1.186314
v 0.521365 0.740383 1.258685
v -0.000000 1.367038 1.362391
v -0.000000 1.625835 1.284057
v -0.000000 0.481586 1.284057
v -0.000000 0.740383 1.362391
v -0.521365 1.367038 1.258685
v -0.491387 1.625835 1.186314
v -0.491387 0.481586 1.186314
v -0.521365 0.740383 1.258685
v -0.963356 1.367038 0.963356
v -0.907965 1.625835 0.907965
v -0.907965 0.481586 0.907965
v -0.963356 0.740383 0.963356
v -1.258685 1.367038 0.521365
v -1.186314 1.625835 0.491387
v -1.186314 0.481586 0.491387
v -1.258685 0.740383 0.521365
v -1.362391 1.367038 0.000000
v -1.284057 1.625835 0.000000
v -1.284057 0.481586 0.000000
v -1.362391 0.740383 0.000000
v -1.258685 1.367038 -0.521365
v -1.186314 1.625835 -0.491387
v -1.186314 0.481586 -0.491387
v -1.258685 0.740383 -0.521365
v -0.963356 1.367038 -0.963356
v -0.907965 1.625835 -0.907965
v -0.907965 0.481586 -0.907965
v -0.963356 0.740383 -0.963356
v -0.521365 1.367038 -1.258685
v -0.491387 1.625835 -1.186314
v -0.491387 0.481586 -1.186314
v -0.521365 0.740383 -1.258685
v -0.000000 0.740383 -1.362391
v -0.000000 0.481586 -1.284057
v -0.000000 1.625835 -1.284057
v -0.000000 1.367038 -1.362391
v 0.521365 1.367038 -1.258685
v 0.491387 1.625835 -1.186314
v 0.491387 0.481586 -1.186314
v 0.521365 0.740383 -1.258685
v 0.963356 1.367038 -0.963356
v 0.907965 1.625835 -0.907965
v 0.907965 0.481586 -0.907965
v 0.963356 0.740383 -0.963356
v 1.258685 1.367038 -0.521365
v 1.186314 1.625835 -0.491387
v 1.186314 0.481586 -0.491387
v 1.258685 0.740383 -0.521365
v 1.362391 1.367038 0.000000
v 1.284057 1.625835 0.000000
v 1.284057 0.481586 0.000000
v 1.362391 0.740383 0.000000
v 1.258685 1.367038 0.521365
v 1.186314 1.625835 0.491387
v 1.186314 0.481586 0.491387
v 1.258685 0.740383 0.521365
v 0.963356 1.367038 0.963356
v 0.907965 1.625835 0.907965
v 0.907965 0.481586 0.907965
v 0.963356 0.740383 0.963356
v 0.521365 1.367038 1.258685
v 0.491387 1.625835 1.186314
v 0.491387 0.481586 1.186314
v 0.521365 0.740383 1.258685
v -0.000000 1.367038 1.362391
v -0.000000 1.625835 1.284057
v -0.000000 0.481586 1.284057
v -0.000000 0.740383 1.362391
v -0.521365 1.367038 1.258685
v -0.491387 1.625835 1.186314
v -0.491387 0.481586 1.186314
v -0.521365 0.740383 1.258685
v -0.963356 1.367038 0.963356
v -0.907965 1.625835 0.907965
v -0.907965 0.481586 0.907965
v -0.963356 0.740383 0.963356
v -1.258685 1.367038 0.521365
v -1.186314 1.625835 0.491387
v -1.186314 0.481586 0.491387
v -1.258685 0.740383 0.521365
v -1.362391 1.367038 0.000000
v -1.284057 1.625835 0.000000
v -1.284057 0.481586 0.000000
v -1.362391 0.740383 0.000000
v -1.258685 1.367038 -0.521365
v -1.186314 1.625835 -0.491387
v -1.186314 0.481586 -0.491387
v -1.258685 0.740383 -0.521365
v -0.963356 1.367038 -0.963356
v -0.907965 1.625835 -0.907965
v -0.907965 0.481586 -0.907965
v -0.963356 0.740383 -0.963356
v -0.521365 1.367038 -1.258685
v -0.491387 1.625835 -1.186314
v -0.491387 0.481586 -1.186314
v -0.521365 0.740383 -1.258685
v -0.536588 0.481586 -1.295439
v -0.569323 0.740383 -1.374467
v -0.000000 0.740383 -1.487712
v -0.000000 0.481586 -1.402173
v -0.569323 1.367038 -1.374467
v -0.536588 1.625835 -1.295439
v -0.000000 1.625835 -1.402173
v -0.000000 1.367038 -1.487712
v -0.991486 0.481586 -0.991486
v -1.051972 0.740383 -1.051971
v -1.051972 1.367038 -1.051971
v -0.991486 1.625835 -0.991486
v -1.295439 0.481586 -0.536588
v -1.374467 0.740383 -0.569323
v -1.374467 1.367038 -0.569323
v -1.295439 1.625835 -0.536588
v -1.402173 0.481586 0.000000
v -1.487712 0.740383 0.000000
v -1.487712 1.367038 0.000000
v -1.402173 1.625835 0.000000
v -1.295439 0.481586 0.536588
v -1.374467 0.740383 0.569323
v -1.374467 1.367038 0.569323
v -1.295439 1.625835 0.536588
v -0.991486 0.481586 0.991486
v -1.051972 0.740383 1.051971
v -1.051972 1.367038 1.051971
v -0.991486 1.625835 0.991486
v -0.536588 0.481586 1.295439
v -0.569323 0.740383 1.374467
v -0.569323 1.367038 1.374467
v -0.536588 1.625835 1.295439
v -0.000000 0.481586 1.402173
v -0.000000 0.740383 1.487712
v -0.000000 1.367038 1.487712
v -0.000000 1.625835 1.402173
v 0.536588 0.481586 1.295439
v 0.569323 0.740383 1.374467
v 0.569323 1.367038 1.374467
v 0.536588 1.625835 1.295439
v 0.991486 0.481586 0.991486
v 1.051971 0.740383 1.051971
v 1.051971 1.367038 1.051971
v 0.991486 1.625835 0.991486
v 1.295439 0.481586 0.536588
v 1.374467 0.740383 0.569323
v 1.374467 1.367038 0.569323
v 1.295439 1.625835 0.536588
v 1.402173 0.481586 0.000000
v 1.487712 0.740383 0.000000
v 1.487712 1.367038 0.000000
v 1.402173 1.625835 0.000000
v 1.295439 0.481586 -0.536588
v 1.374467 0.740383 -0.569323
v 1.374467 1.367038 -0.569323
v 1.295439 1.625835 -0.536588
v 0.991486 0.481586 -0.991486
v 1.051971 0.740383 -1.051971
v 1.051971 1.367038 -1.051971
v 0.991486 1.625835 -0.991486
v 0.536588 0.481586 -1.295439
v 0.569323 0.740383 -1.374467
v 0.569323 1.367038 -1.374467
v 0.536588 1.625835 -1.295439
v 0.000000 0.053710 -1.000000
v 0.382683 0.053710 -0.923880
v 0.382683 2.053710 -0.923880
v 0.707107 0.053710 -0.707107
v 0.707107 2.053710 -0.707107
v 0.923880 0.053710 -0.382683
v 0.923880 2.053710 -0.382683
v 1.000000 0.053710 0.000000
v 0.923880 0.053710 0.382683
v 0.923880 2.053710 0.382683
v 0.707107 0.053710 0.707107
v 0.382683 0.053710 0.923880
v 0.382683 2.053710 0.923880
v 0.000000 2.053710 1.000000
v -0.382683 0.053710 0.923880
v -0.707107 0.053710 0.707107
v -0.707107 2.053710 0.707107
v -0.923880 0.053710 0.382683
v -0.923880 2.053710 0.382683
v -1.000000 0.053710 0.000000
v -1.000000 2.053710 0.000000
v -0.923880 0.053710 -0.382683
v -0.923880 2.053710 -0.382683
v -0.707107 0.053710 -0.707107
v -0.707107 2.053710 -0.707107
v -0.382683 0.053710 -0.923880
v -0.382683 2.053710 -0.923880
v 0.000000 0.218005 -0.809910
v 0.309939 0.218005 -0.748259
v 0.309939 1.889416 -0.748259
v 0.000000 1.889416 -0.809910
v 0.572693 0.218005 -0.572693
v 0.572693 1.889416 -0.572693
v 0.748259 0.218005 -0.309939
v 0.748259 1.889416 -0.309939
v 0.809910 0.218005 0.000000
v 0.809910 1.889416 0.000000
v 0.748259 0.218005 0.309939
v 0.748259 1.889416 0.309939
v 0.572693 0.218005 0.572693
v 0.572693 1.889416 0.572693
v 0.309939 0.218005 0.748259
v 0.309939 1.889416 0.748259
v 0.000000 0.218005 0.809910
v 0.000000 1.889416 0.809910
v -0.309939 0.218005 0.748259
v -0.309939 1.889416 0.748259
v -0.572693 0.218005 0.572693
v -0.572693 1.889416 0.572693
v -0.748259 0.218005 0.309939
v -0.748259 1.889416 0.309939
v -0.809910 0.218005 0.000000
v -0.809910 1.889416 0.000000
v -0.748259 0.218005 -0.309939
v -0.748259 1.889416 -0.309939
v -0.572693 0.218005 -0.572693
v -0.572693 1.889416 -0.572693
v -0.309939 0.218005 -0.748259
v -0.309939 1.889416 -0.748259
v 0.337917 2.053710 0.729566
v 0.729566 2.053710 0.337917
v 0.572693 1.889465 0.572693
v 0.863979 2.053710 0.472330
v 0.472330 2.053710 0.863979
v -0.416200 2.053710 0.677258
v -0.184596 2.053710 0.773192
v -0.309939 1.928367 0.748259
v -0.257340 2.053710 0.948812
v -0.488945 2.053710 0.852878
v -0.409214 1.949284 0.987929
v 0.203506 2.053710 -0.769430
v -0.203506 2.053710 -0.769430
v 0.000000 1.996338 -0.809910
v -0.203506 2.053710 -0.959520
v 0.203506 2.053710 -0.959520
v -0.000000 1.991038 -1.112557
v 0.117782 0.053710 0.786482
v -0.117782 0.053710 0.786482
v 0.000000 0.171492 0.809910
v -0.117782 0.053710 0.976572
v 0.117782 0.053710 0.976572
v -0.000000 0.151837 1.065144
v 0.796913 2.053710 0.065342
v 0.796913 2.053710 -0.065342
v 0.809910 1.961303 0.000000
v 0.987003 2.053710 -0.065342
v 0.987003 2.053710 0.065342
v 1.051110 1.976724 0.000000
v -0.536588 0.481586 -1.295439
v -0.569323 0.740383 -1.374467
v -0.000000 0.740383 -1.487712
v -0.000000 0.481586 -1.402173
v -0.569323 1.367038 -1.374467
v -0.536588 1.625835 -1.295439
v -0.000000 1.625835 -1.402173
v -0.000000 1.367038 -1.487712
v -0.991486 0.481586 -0.991486
v -1.051972 0.740383 -1.051971
v -1.051972 1.367038 -1.051971
v -0.991486 1.625835 -0.991486
v -1.295439 0.481586 -0.536588
v -1.374467 0.740383 -0.569323
v -1.374467 1.367038 -0.569323
v -1.295439 1.625835 -0.536588
v -1.402173 0.481586 0.000000
v -1.487712 0.740383 0.000000
v -1.487712 1.367038 0.000000
v -1.402173 1.625835 0.000000
v -1.295439 0.481586 0.536588
v -1.374467 0.740383 0.569323
v -1.374467 1.367038 0.569323
v -1.295439 1.625835 0.536588
v -0.991486 0.481586 0.991486
v -1.051972 0.740383 1.051971
v -1.051972 1.367038 1.051971
v -0.991486 1.625835 0.991486
v -0.536588 0.481586 1.295439
v -0.569323 0.740383 1.374467
v -0.569323 1.367038 1.374467
v -0.536588 1.625835 1.295439
v -0.000000 0.481586 1.402173
v -0.000000 0.740383 1.487712
v -0.000000 1.367038 1.487712
v -0.000000 1.625835 1.402173
v 0.536588 0.481586 1.295439
v 0.569323 0.740383 1.374467
v 0.569323 1.367038 1.374467
v 0.536588 1.625835 1.295439
v 0.991486 0.481586 0.991486
v 1.051971 0.740383 1.051971
v 1.051971 1.367038 1.051971
v 0.991486 1.625835 0.991486
v 1.295439 0.481586 0.536588
v 1.374467 0.740383 0.569323
v 1.374467 1.367038 0.569323
v 1.295439 1.625835 0.536588
v 1.402173 0.481586 0.000000
v 1.487712 0.740383 0.000000
v 1.487712 1.367038 0.000000
v 1.402173 1.625835 0.000000
v 1.295439 0.481586 -0.536588
v 1.374467 0.740383 -0.569323
v 1.374467 1.367038 -0.569323
v 1.295439 1.625835 -0.536588
v 0.991486 0.481586 -0.991486
v 1.051971 0.740383 -1.051971
v 1.051971 1.367038 -1.051971
v 0.991486 1.625835 -0.991486
v 0.536588 0.481586 -1.295439
v 0.569323 0.740383 -1.374467
v 0.569323 1.367038 -1.374467
v 0.536588 1.625835 -1.295439
v -0.536588 0.481586 -1.295439
v -0.569323 0.740383 -1.374467
v -0.000000 0.740383 -1.487712
v -0.000000 0.481586 -1.402173
v -0.569323 1.367038 -1.374467
v -0.536588 1.625835 -1.295439
v -0.000000 1.625835 -1.402173
v -0.000000 1.367038 -1.487712
v -0.991486 0.481586 -0.991486
v -1.051972 0.740383 -1.051971
v -1.051972 1.367038 -1.051971
v -0.991486 1.625835 -0.991486
v -1.295439 0.481586 -0.536588
v -1.374467 0.740383 -0.569323
v -1.374467 1.367038 -0.569323
v -1.295439 1.625835 -0.536588
v -1.402173 0.481586 0.000000
v -1.487712 0.740383 0.000000
v -1.487712 1.367038 0.000000
v -1.402173 1.625835 0.000000
v -1.295439 0.481586 0.536588
v -1.374467 0.740383 0.569323
v -1.374467 1.367038 0.569323
v -1.295439 1.625835 0.536588
v -0.991486 0.481586 0.991486
v -1.051972 0.740383 1.051971
v -1.051972 1.367038 1.051971
v -0.991486 1.625835 0.991486
v -0.536588 0.481586 1.295439
v -0.569323 0.740383 1.374467
v -0.569323 1.367038 1.374467
v -0.536588 1.625835 1.295439
v -0.000000 0.481586 1.402173
v -0.000000 0.740383 1.487712
v -0.000000 1.367038 1.487712
v -0.000000 1.625835 1.402173
v 0.536588 0.481586 1.295439
v 0.569323 0.740383 1.374467
v 0.569323 1.367038 1.374467
v 0.536588 1.625835 1.295439
v 0.991486 0.481586 0.991486
v 1.051971 0.740383 1.051971
v 1.051971 1.367038 1.051971
v 0.991486 1.625835 0.991486
v 1.295439 0.481586 0.536588
v 1.374467 0.740383 0.569323
v 1.374467 1.367038 0.569323
v 1.295439 1.625835 0.536588
v 1.402173 0.481586 0.000000
v 1.487712 0.740383 0.000000
v 1.487712 1.367038 0.000000
v 1.402173 1.625835 0.000000
v 1.295439 0.481586 -0.536588
v 1.374467 0.740383 -0.569323
v 1.374467 1.367038 -0.569323
v 1.295439 1.625835 -0.536588
v 0.991486 0.481586 -0.991486
v 1.051971 0.740383 -1.051971
v 1.051971 1.367038 -1.051971
v 0.991486 1.625835 -0.991486
v 0.536588 0.481586 -1.295439
v 0.569323 0.740383 -1.374467
v 0.569323 1.367038 -1.374467
v 0.536588 1.625835 -1.295439
v -0.536588 0.481586 -1.295439
v -0.569323 0.740383 -1.374467
v -0.000000 0.740383 -1.487712
v -0.000000 0.481586 -1.402173
v -0.569323 1.367038 -1.374467
v -0.536588 1.625835 -1.295439
v -0.000000 1.625835 -1.402173
v -0.000000 1.367038 -1.487712
v -0.991486 0.481586 -0.991486
v -1.051972 0.740383 -1.051971
v -1.051972 1.367038 -1.051971
v -0.991486 1.625835 -0.991486
v -1.295439 0.481586 -0.536588
v -1.374467 0.740383 -0.569323
v -1.374467 1.367038 -0.569323
v -1.295439 1.625835 -0.536588
v -1.402173 0.481586 0.000000
v -1.487712 0.740383 0.000000
v -1.487712 1.367038 0.000000
v -1.402173 1.625835 0.000000
v -1.295439 0.481586 0.536588
v -1.374467 0.740383 0.569323
v -1.374467 1.367038 0.569323
v -1.295439 1.625835 0.536588
v -0.991486 0.481586 0.991486
v -1.051972 0.740383 1.051971
v -1.051972 1.367038 1.051971
v -0.991486 1.625835 0.991486
v -0.536588 0.481586 1.295439
v -0.569323 0.740383 1.374467
v -0.569323 1.367038 1.374467
v -0.536588 1.625835 1.295439
v -0.000000 0.481586 1.402173
v -0.000000 0.740383 1.487712
v -0.000000 1.367038 1.487712
v -0.000000 1.625835 1.402173
v 0.536588 0.481586 1.295439
v 0.569323 0.740383 1.374467
v 0.569323 1.367038 1.374467
v 0.536588 1.625835 1.295439
v 0.991486 0.481586 0.991486
v 1.051971 0.740383 1.051971
v 1.051971 1.367038 1.051971
v 0.991486 1.625835 0.991486
v 1.295439 0.481586 0.536588
v 1.374467 0.740383 0.569323
v 1.374467 1.367038 0.569323
v 1.295439 1.625835 0.536588
v 1.402173 0.481586 0.000000
v 1.487712 0.740383 0.000000
v 1.487712 1.367038 0.000000
v 1.402173 1.625835 0.000000
v 1.295439 0.481586 -0.536588
v 1.374467 0.740383 -0.569323
v 1.374467 1.367038 -0.569323
v 1.295439 1.625835 -0.536588
v 0.991486 0.481586 -0.991486
v 1.051971 0.740383 -1.051971
v 1.051971 1.367038 -1.051971
v 0.991486 1.625835 -0.991486
v 0.536588 0.481586 -1.295439
v 0.569323 0.740383 -1.374467
v 0.569323 1.367038 -1.374467
v 0.536588 1.625835 -1.295439
v -0.536588 0.481586 -1.295439
v -0.569323 0.740383 -1.374467
v -0.000000 0.740383 -1.487712
v -0.000000 0.481586 -1.402173
v -0.569323 1.367038 -1.374467
v -0.536588 1.625835 -1.295439
v -0.000000 1.625835 -1.402173
v -0.000000 1.367038 -1.487712
v -0.991486 0.481586 -0.991486
v -1.051972 0.740383 -1.051971
v -1.051972 1.367038 -1.051971
v -0.991486 1.625835 -0.991486
v -1.295439 0.481586 -0.536588
v -1.374467 0.740383 -0.569323
v -1.374467 1.367038 -0.569323
v -1.295439 1.625835 -0.536588
v -1.402173 0.481586 0.000000
v -1.487712 0.740383 0.000000
v -1.487712 1.367038 0.000000
v -1.402173 1.625835 0.000000
v -1.295439 0.481586 0.536588
v -1.374467 0.740383 0.569323
v -1.374467 1.367038 0.569323
v -1.295439 1.625835 0.536588
v -0.991486 0.481586 0.991486
v -1.051972 0.740383 1.051971
v -1.051972 1.367038 1.051971
v -0.991486 1.625835 0.991486
v -0.536588 0.481586 1.295439
v -0.569323 0.740383 1.374467
v -0.569323 1.367038 1.374467
v -0.536588 1.625835 1.295439
v -0.000000 0.481586 1.402173
v -0.000000 0.740383 1.487712
v -0.000000 1.367038 1.487712
v -0.000000 1.625835 1.402173
v 0.536588 0.481586 1.295439
v 0.569323 0.740383 1.374467
v 0.569323 1.367038 1.374467
v 0.536588 1.625835 1.295439
v 0.991486 0.481586 0.991486
v 1.051971 0.740383 1.051971
v 1.051971 1.367038 1.051971
v 0.991486 1.625835 0.991486
v 1.295439 0.481586 0.536588
v 1.374467 0.740383 0.569323
v 1.374467 1.367038 0.569323
v 1.295439 1.625835 0.536588
v 1.402173 0.481586 0.000000
v 1.487712 0.740383 0.000000
v 1.487712 1.367038 0.000000
v 1.402173 1.625835 0.000000
v 1.295439 0.481586 -0.536588
v 1.374467 0.740383 -0.569323
v 1.374467 1.367038 -0.569323
v 1.295439 1.625835 -0.536588
v 0.991486 0.481586 -0.991486
v 1.051971 0.740383 -1.051971
v 1.051971 1.367038 -1.051971
v 0.991486 1.625835 -0.991486
v 0.536588 0.481586 -1.295439
v 0.569323 0.740383 -1.374467
v 0.569323 1.367038 -1.374467
v 0.536588 1.625835 -1.295439
v -0.536588 0.481586 -1.295439
v -0.569323 0.740383 -1.374467
v -0.000000 0.740383 -1.487712
v -0.000000 0.481586 -1.402173
v -0.569323 1.367038 -1.374467
v -0.536588 1.625835 -1.295439
v -0.000000 1.625835 -1.402173
v -0.000000 1.367038 -1.487712
v -0.991486 0.481586 -0.991486
v -1.051972 0.740383 -1.051971
v -1.051972 1.367038 -1.051971
v -0.991486 1.625835 -0.991486
v -1.295439 0.481586 -0.536588
v -1.374467 0.740383 -0.569323
v -1.374467 1.367038 -0.569323
v -1.295439 1.625835 -0.536588
v -1.402173 0.481586 0.000000
v -1.487712 0.740383 0.000000
v -1.487712 1.367038 0.000000
v -1.402173 1.625835 0.000000
v -1.295439 0.481586 0.536588
v -1.374467 0.740383 0.569323
v -1.374467 1.367038 0.569323
v -1.295439 1.625835 0.536588
v -0.991486 0.481586 0.991486
v -1.051972 0.740383 1.051971
v -1.051972 1.367038 1.051971
v -0.991486 1.625835 0.991486
v -0.536588 0.481586 1.295439
v -0.569323 0.740383 1.374467
v -0.569323 1.367038 1.374467
v -0.536588 1.625835 1.295439
v -0.000000 0.481586 1.402173
v -0.000000 0.740383 1.487712
v -0.000000 1.367038 1.487712
v -0.000000 1.625835 1.402173
v 0.536588 0.481586 1.295439
v 0.569323 0.740383 1.374467
v 0.569323 1.367038 1.374467
v 0.536588 1.625835 1.295439
v 0.991486 0.481586 0.991486
v 1.051971 0.740383 1.051971
v 1.051971 1.367038 1.051971
v 0.991486 1.625835 0.991486
v 1.295439 0.481586 0.536588
v 1.374467 0.740383 0.569323
v 1.374467 1.367038 0.569323
v 1.295439 1.625835 0.536588
v 1.402173 0.481586 0.000000
v 1.487712 0.740383 0.000000
v 1.487712 1.367038 0.000000
v 1.402173 1.625835 0.000000
v 1.295439 0.481586 -0.536588
v 1.374467 0.740383 -0.569323
v 1.374467 1.367038 -0.569323
v 1.295439 1.625835 -0.536588
v 0.991486 0.481586 -0.991486
v 1.051971 0.740383 -1.051971
v 1.051971 1.367038 -1.051971
v 0.991486 1.625835 -0.991486
v 0.536588 0.481586 -1.295439
v 0.569323 0.740383 -1.374467
v 0.569323 1.367038 -1.374467
v 0.536588 1.625835 -1.295439
vn 0.5556 -0.0000 0.8315
vn -0.1870 -0.2846 -0.9402
vn -0.1870 0.2846 -0.9402
vn -0.5326 -0.2846 -0.7971
vn -0.5326 0.2846 -0.7971
vn -0.7971 -0.2846 -0.5326
vn -0.7971 0.2846 -0.5326
vn -0.9402 -0.2846 -0.1870
vn -0.9402 0.2846 -0.1870
vn -0.9402 -0.2846 0.1870
vn -0.9402 0.2846 0.1870
vn -0.7971 -0.2846 0.5326
vn -0.7971 0.2846 0.5326
vn -0.5326 -0.2846 0.7971
vn -0.5326 0.2846 0.7971
vn -0.1870 -0.2846 0.9402
vn -0.1870 0.2846 0.9402
vn 0.1870 -0.2846 0.9402
vn 0.1870 0.2846 0.9402
vn 0.5326 -0.2846 0.7971
vn 0.5326 0.2846 0.7971
vn 0.7971 -0.2846 0.5326
vn 0.7971 0.2846 0.5326
vn 0.9402 -0.2846 0.1870
vn 0.9402 0.2846 0.1870
vn 0.9402 -0.2846 -0.1870
vn 0.9402 0.2846 -0.1870
vn 0.7971 -0.2846 -0.5326
vn 0.7971 0.2846 -0.5326
vn 0.5326 -0.2846 -0.7971
vn 0.5326 0.2846 -0.7971
vn 0.1870 -0.2846 -0.9402
vn 0.1870 0.2846 -0.9402
vn 0.1635 -0.5456 -0.8219
vn -0.1635 -0.5456 -0.8219
vn 0.1951 -0.0000 -0.9808
vn -0.1951 -0.0000 -0.9808
vn 0.4656 0.5456 -0.6968
vn 0.5556 -0.0000 -0.8315
vn 0.4656 -0.5456 -0.6968
vn 0.6968 0.5456 -0.4656
vn 0.8315 -0.0000 -0.5556
vn 0.6968 -0.5456 -0.4656
vn 0.9808 -0.0000 -0.1951
vn 0.8219 -0.5456 -0.1635
vn 0.9808 -0.0000 0.1951
vn 0.8219 -0.5456 0.1635
vn 0.8315 -0.0000 0.5556
vn 0.6968 -0.5456 0.4656
vn 0.4656 -0.5456 0.6968
vn 0.1635 0.5456 0.8219
vn 0.1951 -0.0000 0.9808
vn -0.1951 -0.0000 0.9808
vn -0.5556 -0.0000 0.8315
vn -0.4656 -0.5456 0.6968
vn -0.6968 0.5456 0.4656
vn -0.8315 -0.0000 0.5556
vn -0.6968 -0.5456 0.4656
vn -0.8219 0.5456 0.1635
vn -0.9808 -0.0000 0.1951
vn -0.8219 -0.5456 0.1635
vn -0.8219 0.5456 -0.1635
vn -0.9808 -0.0000 -0.1951
vn -0.8219 -0.5456 -0.1635
vn -0.6968 0.5456 -0.4656
vn -0.8315 -0.0000 -0.5556
vn -0.6968 -0.5456 -0.4656
vn -0.4656 0.5456 -0.6968
vn -0.5556 -0.0000 -0.8315
vn -0.4656 -0.5456 -0.6968
vn -0.1856 -0.3084 -0.9330
vn -0.1856 0.3084 -0.9330
vn -0.5285 -0.3084 -0.7909
vn -0.5285 0.3084 -0.7909
vn -0.7909 -0.3084 -0.5285
vn -0.7909 0.3084 -0.5285
vn -0.9330 -0.3084 -0.1856
vn -0.9330 0.3084 -0.1856
vn -0.9330 -0.3084 0.1856
vn -0.9330 0.3084 0.1856
vn -0.7909 -0.3084 0.5285
vn -0.7909 0.3084 0.5285
vn -0.5285 -0.3084 0.7909
vn -0.5285 0.3084 0.7909
vn -0.1856 -0.3084 0.9330
vn -0.1856 0.3084 0.9330
vn 0.1856 -0.3084 0.9330
vn 0.1856 0.3084 0.9330
vn 0.5285 -0.3084 0.7909
vn 0.5285 0.3084 0.7909
vn 0.7909 -0.3084 0.5285
vn 0.7909 0.3084 0.5285
vn 0.9330 -0.3084 0.1856
vn 0.9330 0.3084 0.1856
vn 0.9330 -0.3084 -0.1856
vn 0.9330 0.3084 -0.1856
vn 0.7909 -0.3084 -0.5285
vn 0.7909 0.3084 -0.5285
vn 0.5285 -0.3084 -0.7909
vn 0.5285 0.3084 -0.7909
vn 0.1856 -0.3084 -0.9330
vn 0.1856 0.3084 -0.9330
vn -0.0000 -1.0000 -0.0000
vn -0.0000 1.0000 -0.0000
vn 0.6968 0.5456 0.4656
vn 0.4656 0.5456 0.6968
vn 0.5541 0.6212 0.5541
vn -0.6704 -0.3179 -0.6704
vn -0.6190 0.7287 -0.2931
vn 0.6449 0.7287 0.2304
vn -0.4656 0.5456 0.6968
vn -0.1635 0.5456 0.8219
vn 0.2334 0.5147 -0.8250
vn -0.2334 0.5147 -0.8250
vn 0.2784 0.9604 -0.0103
vn -0.2784 0.9604 -0.0103
vn -0.6836 -0.7291 -0.0322
vn 0.6836 -0.7291 -0.0322
vn 0.1635 -0.5456 0.8219
vn -0.1635 -0.5456 0.8219
vn -0.0216 0.6045 -0.7963
vn -0.0216 0.6045 0.7963
vn 0.8219 0.5456 0.1635
vn 0.8219 0.5456 -0.1635
vt 0.612554 0.387446
vt 0.675615 0.429582
vt 0.062500 0.692504
vt 0.000000 0.692504
vt 0.000000 0.630640
vt 0.062500 0.630640
vt 0.062500 0.869360
vt 0.000000 0.869360
vt 0.000000 0.807496
vt 0.062500 0.807496
vt 0.125000 0.692504
vt 0.125000 0.630640
vt 0.125000 0.869360
vt 0.125000 0.807496
vt 0.187500 0.692504
vt 0.187500 0.630640
vt 0.187500 0.869360
vt 0.187500 0.807496
vt 0.250000 0.692504
vt 0.250000 0.630640
vt 0.250000 0.869360
vt 0.250000 0.807496
vt 0.312500 0.692504
vt 0.312500 0.630640
vt 0.312500 0.869360
vt 0.312500 0.807496
vt 0.375000 0.692504
vt 0.375000 0.630640
vt 0.375000 0.869360
vt 0.375000 0.807496
vt 0.437500 0.692504
vt 0.437500 0.630640
vt 0.437500 0.869360
vt 0.437500 0.807496
vt 0.500000 0.692504
vt 0.500000 0.630640
vt 0.500000 0.869360
vt 0.500000 0.807496
vt 0.562500 0.692504
vt 0.562500 0.630640
vt 0.562500 0.869360
vt 0.562500 0.807496
vt 0.625000 0.692504
vt 0.625000 0.630640
vt 0.625000 0.869360
vt 0.625000 0.807496
vt 0.687500 0.692504
vt 0.687500 0.630640
vt 0.687500 0.869360
vt 0.687500 0.807496
vt 0.750000 0.692504
vt 0.750000 0.630640
vt 0.750000 0.869360
vt 0.750000 0.807496
vt 0.812500 0.692504
vt 0.812500 0.630640
vt 0.812500 0.869360
vt 0.812500 0.807496
vt 0.875000 0.692504
vt 0.875000 0.630640
vt 0.875000 0.869360
vt 0.875000 0.807496
vt 0.937500 0.692504
vt 0.937500 0.630640
vt 0.937500 0.869360
vt 0.937500 0.807496
vt 1.000000 0.692504
vt 1.000000 0.630640
vt 1.000000 0.869360
vt 1.000000 0.807496
vt 1.000000 0.500000
vt 0.937500 0.500000
vt 0.062500 0.500000
vt 0.000000 0.500000
vt 0.937500 1.000000
vt 0.875000 1.000000
vt 0.875000 0.500000
vt 0.812500 1.000000
vt 0.812500 0.500000
vt 0.750000 0.500000
vt 0.687500 0.500000
vt 0.625000 0.500000
vt 0.562500 0.500000
vt 0.562500 1.000000
vt 0.500000 1.000000
vt 0.437500 0.500000
vt 0.375000 0.500000
vt 0.375000 1.000000
vt 0.312500 1.000000
vt 0.312500 0.500000
vt 0.250000 1.000000
vt 0.250000 0.500000
vt 0.187500 1.000000
vt 0.187500 0.500000
vt 0.125000 1.000000
vt 0.125000 0.500000
vt 0.062500 1.000000
vt 0.824386 0.429582
vt 0.750000 0.444378
vt 0.750000 0.490000
vt 0.841844 0.471731
vt 0.887446 0.387446
vt 0.919706 0.419706
vt 0.324385 0.429582
vt 0.387446 0.387446
vt 0.419706 0.419706
vt 0.341844 0.471731
vt 0.929582 0.324385
vt 0.971731 0.341844
vt 0.429582 0.324385
vt 0.471731 0.341844
vt 0.944378 0.250000
vt 0.990000 0.250000
vt 0.929582 0.175615
vt 0.971731 0.158156
vt 0.887446 0.112554
vt 0.919706 0.080294
vt 0.824386 0.070418
vt 0.841844 0.028269
vt 0.324385 0.070418
vt 0.250000 0.055622
vt 0.250000 0.010000
vt 0.341844 0.028269
vt 0.612554 0.112554
vt 0.675615 0.070418
vt 0.658156 0.028269
vt 0.580294 0.080294
vt 0.570418 0.175615
vt 0.528269 0.158156
vt 0.112554 0.112554
vt 0.070418 0.175615
vt 0.028269 0.158156
vt 0.080294 0.080294
vt 0.555622 0.250000
vt 0.510000 0.250000
vt 0.055622 0.250000
vt 0.010000 0.250000
vt 0.570418 0.324385
vt 0.528269 0.341844
vt 0.070418 0.324385
vt 0.028269 0.341844
vt 0.580294 0.419706
vt 0.112554 0.387446
vt 0.080294 0.419706
vt 0.658156 0.471731
vt 0.175615 0.429582
vt 0.158156 0.471731
vt 0.250000 0.444378
vt 0.175615 0.070418
vt 0.387446 0.112554
vt 0.429582 0.175615
vt 0.444378 0.250000
vt 0.750000 0.055622
vt 0.000000 0.000000
vt 0.687500 1.000000
vt 0.205697 0.064434
vt 0.437500 0.968116
vt 0.188238 0.022285
vt 0.150112 0.087458
vt 0.417029 1.000000
vt 0.132653 0.045309
vt 0.447736 1.000000
vt 0.298841 0.434663
vt 0.298841 0.480285
vt 0.201158 0.434663
vt 0.201159 0.480285
vt 1.000000 0.948234
vt 0.966763 1.000000
vt 0.033237 1.000000
vt 0.000000 0.948234
vt 0.750000 0.055622
vt 0.778268 0.061244
vt 0.519236 0.500000
vt 0.500000 0.529960
vt 0.721732 0.061244
vt 0.721732 0.015623
vt 0.768845 0.015623
vt 0.480764 0.500000
vt 0.441259 0.234318
vt 0.739328 1.000000
vt 0.750000 0.976494
vt 0.441259 0.265682
vt 0.486881 0.265682
vt 0.471731 0.158156
vt 0.486881 0.234318
vt 0.755336 1.000000
s 0
usemtl wood
f 24/1/1 26/2/1 405/2/1 403/1/1
f 91/3/2 28/4/2 29/5/2 90/6/2
f 89/7/3 30/8/3 31/9/3 88/10/3
f 87/11/4 91/3/4 90/6/4 86/12/4
f 85/13/5 89/7/5 88/10/5 84/14/5
f 83/15/6 87/11/6 86/12/6 82/16/6
f 81/17/7 85/13/7 84/14/7 80/18/7
f 79/19/8 83/15/8 82/16/8 78/20/8
f 77/21/9 81/17/9 80/18/9 76/22/9
f 75/23/10 79/19/10 78/20/10 74/24/10
f 73/25/11 77/21/11 76/22/11 72/26/11
f 71/27/12 75/23/12 74/24/12 70/28/12
f 69/29/13 73/25/13 72/26/13 68/30/13
f 67/31/14 71/27/14 70/28/14 66/32/14
f 65/33/15 69/29/15 68/30/15 64/34/15
f 63/35/16 67/31/16 66/32/16 62/36/16
f 61/37/17 65/33/17 64/34/17 60/38/17
f 59/39/18 63/35/18 62/36/18 58/40/18
f 57/41/19 61/37/19 60/38/19 56/42/19
f 55/43/20 59/39/20 58/40/20 54/44/20
f 53/45/21 57/41/21 56/42/21 52/46/21
f 51/47/22 55/43/22 54/44/22 50/48/22
f 49/49/23 53/45/23 52/46/23 48/50/23
f 47/51/24 51/47/24 50/48/24 46/52/24
f 45/53/25 49/49/25 48/50/25 44/54/25
f 43/55/26 47/51/26 46/52/26 42/56/26
f 41/57/27 45/53/27 44/54/27 40/58/27
f 39/59/28 43/55/28 42/56/28 38/60/28
f 37/61/29 41/57/29 40/58/29 36/62/29
f 35/63/30 39/59/30 38/60/30 34/64/30
f 33/65/31 37/61/31 36/62/31 32/66/31
f 28/67/32 35/63/32 34/64/32 29/68/32
f 30/69/33 33/65/33 32/66/33 31/70/33
f 348/71/34 29/68/34 34/64/34 349/72/34
f 373/73/35 90/6/35 29/5/35 348/74/35
f 28/67/36 31/70/36 32/66/36 35/63/36
f 91/3/37 88/10/37 31/9/37 28/4/37
f 33/65/38 350/75/38 352/76/38 37/61/38
f 35/63/39 32/66/39 36/62/39 39/59/39
f 349/72/40 34/64/40 38/60/40 351/77/40
f 37/61/41 352/76/41 354/78/41 41/57/41
f 39/59/42 36/62/42 40/58/42 43/55/42
f 351/77/43 38/60/43 42/56/43 353/79/43
f 43/55/44 40/58/44 44/54/44 47/51/44
f 353/79/45 42/56/45 46/52/45 355/80/45
f 47/51/46 44/54/46 48/50/46 51/47/46
f 355/80/47 46/52/47 50/48/47 356/81/47
f 51/47/48 48/50/48 52/46/48 55/43/48
f 356/81/49 50/48/49 54/44/49 358/82/49
f 55/43/1 52/46/1 56/42/1 59/39/1
f 358/82/50 54/44/50 58/40/50 359/83/50
f 57/41/51 360/84/51 361/85/51 61/37/51
f 59/39/52 56/42/52 60/38/52 63/35/52
f 63/35/53 60/38/53 64/34/53 67/31/53
f 67/31/54 64/34/54 68/30/54 71/27/54
f 362/86/55 66/32/55 70/28/55 363/87/55
f 69/29/56 364/88/56 366/89/56 73/25/56
f 71/27/57 68/30/57 72/26/57 75/23/57
f 363/87/58 70/28/58 74/24/58 365/90/58
f 73/25/59 366/89/59 368/91/59 77/21/59
f 75/23/60 72/26/60 76/22/60 79/19/60
f 365/90/61 74/24/61 78/20/61 367/92/61
f 77/21/62 368/91/62 370/93/62 81/17/62
f 79/19/63 76/22/63 80/18/63 83/15/63
f 367/92/64 78/20/64 82/16/64 369/94/64
f 81/17/65 370/93/65 372/95/65 85/13/65
f 83/15/66 80/18/66 84/14/66 87/11/66
f 369/94/67 82/16/67 86/12/67 371/96/67
f 85/13/68 372/95/68 374/97/68 89/7/68
f 87/11/69 84/14/69 88/10/69 91/3/69
f 371/96/70 86/12/70 90/6/70 373/73/70
f 155/3/2 92/4/2 93/5/2 154/6/2
f 153/7/3 94/8/3 95/9/3 152/10/3
f 151/11/4 155/3/4 154/6/4 150/12/4
f 149/13/5 153/7/5 152/10/5 148/14/5
f 147/15/6 151/11/6 150/12/6 146/16/6
f 145/17/7 149/13/7 148/14/7 144/18/7
f 143/19/8 147/15/8 146/16/8 142/20/8
f 141/21/9 145/17/9 144/18/9 140/22/9
f 139/23/10 143/19/10 142/20/10 138/24/10
f 137/25/11 141/21/11 140/22/11 136/26/11
f 135/27/12 139/23/12 138/24/12 134/28/12
f 133/29/13 137/25/13 136/26/13 132/30/13
f 131/31/14 135/27/14 134/28/14 130/32/14
f 129/33/15 133/29/15 132/30/15 128/34/15
f 127/35/16 131/31/16 130/32/16 126/36/16
f 125/37/17 129/33/17 128/34/17 124/38/17
f 123/39/18 127/35/18 126/36/18 122/40/18
f 121/41/19 125/37/19 124/38/19 120/42/19
f 119/43/20 123/39/20 122/40/20 118/44/20
f 117/45/21 121/41/21 120/42/21 116/46/21
f 115/47/22 119/43/22 118/44/22 114/48/22
f 113/49/23 117/45/23 116/46/23 112/50/23
f 111/51/24 115/47/24 114/48/24 110/52/24
f 109/53/25 113/49/25 112/50/25 108/54/25
f 107/55/26 111/51/26 110/52/26 106/56/26
f 105/57/27 109/53/27 108/54/27 104/58/27
f 103/59/28 107/55/28 106/56/28 102/60/28
f 101/61/29 105/57/29 104/58/29 100/62/29
f 99/63/30 103/59/30 102/60/30 98/64/30
f 97/65/31 101/61/31 100/62/31 96/66/31
f 92/67/32 99/63/32 98/64/32 93/68/32
f 94/69/33 97/65/33 96/66/33 95/70/33
f 219/3/2 156/4/2 157/5/2 218/6/2
f 217/7/3 158/8/3 159/9/3 216/10/3
f 215/11/4 219/3/4 218/6/4 214/12/4
f 213/13/5 217/7/5 216/10/5 212/14/5
f 211/15/6 215/11/6 214/12/6 210/16/6
f 209/17/7 213/13/7 212/14/7 208/18/7
f 207/19/8 211/15/8 210/16/8 206/20/8
f 205/21/9 209/17/9 208/18/9 204/22/9
f 203/23/10 207/19/10 206/20/10 202/24/10
f 201/25/11 205/21/11 204/22/11 200/26/11
f 199/27/12 203/23/12 202/24/12 198/28/12
f 197/29/13 201/25/13 200/26/13 196/30/13
f 195/31/14 199/27/14 198/28/14 194/32/14
f 193/33/15 197/29/15 196/30/15 192/34/15
f 191/35/16 195/31/16 194/32/16 190/36/16
f 189/37/17 193/33/17 192/34/17 188/38/17
f 187/39/18 191/35/18 190/36/18 186/40/18
f 185/41/19 189/37/19 188/38/19 184/42/19
f 183/43/20 187/39/20 186/40/20 182/44/20
f 181/45/21 185/41/21 184/42/21 180/46/21
f 179/47/22 183/43/22 182/44/22 178/48/22
f 177/49/23 181/45/23 180/46/23 176/50/23
f 175/51/24 179/47/24 178/48/24 174/52/24
f 173/53/25 177/49/25 176/50/25 172/54/25
f 171/55/26 175/51/26 174/52/26 170/56/26
f 169/57/27 173/53/27 172/54/27 168/58/27
f 167/59/28 171/55/28 170/56/28 166/60/28
f 165/61/29 169/57/29 168/58/29 164/62/29
f 163/63/30 167/59/30 166/60/30 162/64/30
f 161/65/31 165/61/31 164/62/31 160/66/31
f 156/67/32 163/63/32 162/64/32 157/68/32
f 158/69/33 161/65/33 160/66/33 159/70/33
f 283/3/19 282/6/19 221/5/19 220/4/19
f 281/7/18 280/10/18 223/9/18 222/8/18
f 279/11/21 278/12/21 282/6/21 283/3/21
f 277/13/20 276/14/20 280/10/20 281/7/20
f 275/15/23 274/16/23 278/12/23 279/11/23
f 273/17/22 272/18/22 276/14/22 277/13/22
f 271/19/25 270/20/25 274/16/25 275/15/25
f 269/21/24 268/22/24 272/18/24 273/17/24
f 267/23/27 266/24/27 270/20/27 271/19/27
f 265/25/26 264/26/26 268/22/26 269/21/26
f 263/27/29 262/28/29 266/24/29 267/23/29
f 261/29/28 260/30/28 264/26/28 265/25/28
f 259/31/31 258/32/31 262/28/31 263/27/31
f 257/33/30 256/34/30 260/30/30 261/29/30
f 255/35/33 254/36/33 258/32/33 259/31/33
f 253/37/32 252/38/32 256/34/32 257/33/32
f 251/39/3 250/40/3 254/36/3 255/35/3
f 249/41/2 248/42/2 252/38/2 253/37/2
f 247/43/5 246/44/5 250/40/5 251/39/5
f 245/45/4 244/46/4 248/42/4 249/41/4
f 243/47/7 242/48/7 246/44/7 247/43/7
f 241/49/6 240/50/6 244/46/6 245/45/6
f 239/51/9 238/52/9 242/48/9 243/47/9
f 237/53/8 236/54/8 240/50/8 241/49/8
f 235/55/11 234/56/11 238/52/11 239/51/11
f 233/57/10 232/58/10 236/54/10 237/53/10
f 231/59/13 230/60/13 234/56/13 235/55/13
f 229/61/12 228/62/12 232/58/12 233/57/12
f 227/63/15 226/64/15 230/60/15 231/59/15
f 225/65/14 224/66/14 228/62/14 229/61/14
f 220/67/17 221/68/17 226/64/17 227/63/17
f 222/69/16 223/70/16 224/66/16 225/65/16
f 285/3/71 286/4/71 287/5/71 284/6/71
f 289/7/72 290/8/72 291/9/72 288/10/72
f 293/11/73 285/3/73 284/6/73 292/12/73
f 295/13/74 289/7/74 288/10/74 294/14/74
f 297/15/75 293/11/75 292/12/75 296/16/75
f 299/17/76 295/13/76 294/14/76 298/18/76
f 301/19/77 297/15/77 296/16/77 300/20/77
f 303/21/78 299/17/78 298/18/78 302/22/78
f 305/23/79 301/19/79 300/20/79 304/24/79
f 307/25/80 303/21/80 302/22/80 306/26/80
f 309/27/81 305/23/81 304/24/81 308/28/81
f 311/29/82 307/25/82 306/26/82 310/30/82
f 313/31/83 309/27/83 308/28/83 312/32/83
f 315/33/84 311/29/84 310/30/84 314/34/84
f 317/35/85 313/31/85 312/32/85 316/36/85
f 319/37/86 315/33/86 314/34/86 318/38/86
f 321/39/87 317/35/87 316/36/87 320/40/87
f 323/41/88 319/37/88 318/38/88 322/42/88
f 325/43/89 321/39/89 320/40/89 324/44/89
f 327/45/90 323/41/90 322/42/90 326/46/90
f 329/47/91 325/43/91 324/44/91 328/48/91
f 331/49/92 327/45/92 326/46/92 330/50/92
f 333/51/93 329/47/93 328/48/93 332/52/93
f 335/53/94 331/49/94 330/50/94 334/54/94
f 337/55/95 333/51/95 332/52/95 336/56/95
f 339/57/96 335/53/96 334/54/96 338/58/96
f 341/59/97 337/55/97 336/56/97 340/60/97
f 343/61/98 339/57/98 338/58/98 342/62/98
f 345/63/99 341/59/99 340/60/99 344/64/99
f 347/65/100 343/61/100 342/62/100 346/66/100
f 286/67/101 345/63/101 344/64/101 287/68/101
f 290/69/102 347/65/102 346/66/102 291/70/102
f 224/66/103 223/70/103 291/70/103 346/66/103
f 239/51/104 243/47/104 329/47/104 333/51/104
f 260/30/103 256/34/103 314/34/103 310/30/103
f 242/48/103 238/52/103 332/52/103 328/48/103
f 273/17/104 277/13/104 295/13/104 299/17/104
f 255/35/104 259/31/104 313/31/104 317/35/104
f 276/14/103 272/18/103 298/18/103 294/14/103
f 237/53/104 241/49/104 331/49/104 335/53/104
f 258/32/103 254/36/103 316/36/103 312/32/103
f 240/50/103 236/54/103 334/54/103 330/50/103
f 271/19/104 275/15/104 297/15/104 301/19/104
f 253/37/104 257/33/104 315/33/104 319/37/104
f 274/16/103 270/20/103 300/20/103 296/16/103
f 235/55/104 239/51/104 333/51/104 337/55/104
f 256/34/103 252/38/103 318/38/103 314/34/103
f 238/52/103 234/56/103 336/56/103 332/52/103
f 269/21/104 273/17/104 299/17/104 303/21/104
f 251/39/104 255/35/104 317/35/104 321/39/104
f 272/18/103 268/22/103 302/22/103 298/18/103
f 233/57/104 237/53/104 335/53/104 339/57/104
f 254/36/103 250/40/103 320/40/103 316/36/103
f 236/54/103 232/58/103 338/58/103 334/54/103
f 267/23/104 271/19/104 301/19/104 305/23/104
f 283/3/104 220/4/104 286/4/104 285/3/104
f 249/41/104 253/37/104 319/37/104 323/41/104
f 270/20/103 266/24/103 304/24/103 300/20/103
f 231/59/104 235/55/104 337/55/104 341/59/104
f 252/38/103 248/42/103 322/42/103 318/38/103
f 221/5/103 282/6/103 284/6/103 287/5/103
f 234/56/103 230/60/103 340/60/103 336/56/103
f 265/25/104 269/21/104 303/21/104 307/25/104
f 247/43/104 251/39/104 321/39/104 325/43/104
f 268/22/103 264/26/103 306/26/103 302/22/103
f 281/7/104 222/8/104 290/8/104 289/7/104
f 229/61/104 233/57/104 339/57/104 343/61/104
f 250/40/103 246/44/103 324/44/103 320/40/103
f 232/58/103 228/62/103 342/62/103 338/58/103
f 263/27/104 267/23/104 305/23/104 309/27/104
f 223/9/103 280/10/103 288/10/103 291/9/103
f 245/45/104 249/41/104 323/41/104 327/45/104
f 266/24/103 262/28/103 308/28/103 304/24/103
f 227/63/104 231/59/104 341/59/104 345/63/104
f 248/42/103 244/46/103 326/46/103 322/42/103
f 279/11/104 283/3/104 285/3/104 293/11/104
f 230/60/103 226/64/103 344/64/103 340/60/103
f 261/29/104 265/25/104 307/25/104 311/29/104
f 282/6/103 278/12/103 292/12/103 284/6/103
f 243/47/104 247/43/104 325/43/104 329/47/104
f 264/26/103 260/30/103 310/30/103 306/26/103
f 225/65/104 229/61/104 343/61/104 347/65/104
f 246/44/103 242/48/103 328/48/103 324/44/103
f 277/13/104 281/7/104 289/7/104 295/13/104
f 228/62/103 224/66/103 346/66/103 342/62/103
f 259/31/104 263/27/104 309/27/104 313/31/104
f 280/10/103 276/14/103 294/14/103 288/10/103
f 220/67/104 227/63/104 345/63/104 286/67/104
f 241/49/104 245/45/104 327/45/104 331/49/104
f 262/28/103 258/32/103 312/32/103 308/28/103
f 226/64/103 221/68/103 287/68/103 344/64/103
f 244/46/103 240/50/103 330/50/103 326/46/103
f 275/15/104 279/11/104 293/11/104 297/15/104
f 222/69/104 225/65/104 347/65/104 290/69/104
f 257/33/104 261/29/104 311/29/104 315/33/104
f 278/12/103 274/16/103 296/16/103 292/12/103
f 2/98/103 1/99/103 348/100/103 349/101/103
f 4/102/103 2/98/103 349/101/103 351/103/103
f 3/104/104 5/105/104 352/106/104 350/107/104
f 6/108/103 4/102/103 351/103/103 353/109/103
f 5/105/104 7/110/104 354/111/104 352/106/104
f 8/112/103 6/108/103 353/109/103 355/113/103
f 9/114/103 8/112/103 355/113/103 356/115/103
f 11/116/103 9/114/103 356/115/103 358/117/103
f 12/118/103 11/116/103 358/117/103 359/119/103
f 13/120/104 14/121/104 361/122/104 360/123/104
f 16/124/103 15/125/103 362/126/103 363/127/103
f 18/128/103 16/124/103 363/127/103 365/129/103
f 17/130/104 19/131/104 366/132/104 364/133/104
f 20/134/103 18/128/103 365/129/103 367/135/103
f 19/131/104 21/136/104 368/137/104 366/132/104
f 22/138/103 20/134/103 367/135/103 369/139/103
f 21/136/104 23/140/104 370/141/104 368/137/104
f 24/1/103 22/138/103 369/139/103 371/142/103
f 23/140/104 25/143/104 372/144/104 370/141/104
f 26/2/103 24/1/103 371/142/103 373/145/103
f 25/143/104 27/146/104 374/147/104 372/144/104
f 1/99/103 26/2/103 373/145/103 348/100/103
f 377/104/104 378/148/104 406/146/104 404/143/104 402/140/104 400/136/104 398/131/104 396/130/104 394/149/104 392/121/104 390/120/104 388/150/104 386/151/104 384/152/104 382/110/104 380/105/104
f 375/99/103 376/98/103 379/102/103 381/108/103 383/112/103 385/114/103 387/116/103 389/118/103 391/153/103 393/125/103 395/124/103 397/128/103 399/134/103 401/138/103 403/1/103 405/2/103
f 14/121/37 13/120/37 390/120/37 392/121/37
f 2/98/54 4/102/54 379/102/54 376/98/54
f 27/146/1 25/143/1 404/143/1 406/146/1
f 5/105/54 3/104/54 377/104/54 380/105/54
f 26/2/52 1/99/52 375/99/52 405/2/52
f 4/102/57 6/108/57 381/108/57 379/102/57
f 15/125/39 16/124/39 395/124/39 393/125/39
f 7/110/57 5/105/57 380/105/57 382/110/57
f 6/108/60 8/112/60 383/112/60 381/108/60
f 16/124/42 18/128/42 397/128/42 395/124/42
f 19/131/42 17/130/42 396/130/42 398/131/42
f 8/112/63 9/114/63 385/114/63 383/112/63
f 18/128/44 20/134/44 399/134/44 397/128/44
f 21/136/44 19/131/44 398/131/44 400/136/44
f 9/114/66 11/116/66 387/116/66 385/114/66
f 20/134/46 22/138/46 401/138/46 399/134/46
f 23/140/46 21/136/46 400/136/46 402/140/46
f 11/116/69 12/118/69 389/118/69 387/116/69
f 22/138/48 24/1/48 403/1/48 401/138/48
f 1/99/53 2/98/53 376/98/53 375/99/53
f 25/143/48 23/140/48 402/140/48 404/143/48
f 410/154/105 53/45/105 49/49/105 357/155/105
f 407/154/69 388/150/69 390/120/69 13/120/69
f 409/154/66 10/151/66 386/151/66 388/150/66
f 360/123/104 411/154/104 407/154/104 13/120/104
f 53/45/106 411/154/106 360/123/106 57/41/106
f 410/154/107 411/154/107 53/45/107
f 410/154/104 357/155/104 10/151/104 408/154/104
f 411/154/104 410/154/104 408/154/104 407/154/104
f 407/154/108 408/154/108 409/154/108 388/150/108
f 10/151/66 409/154/66 408/154/66
f 413/156/109 414/149/109 417/157/109 415/158/109
f 414/149/110 412/159/110 416/160/110 417/157/110
f 414/149/36 413/156/36 14/121/36 392/121/36 394/149/36
f 412/159/104 17/130/104 364/133/104 416/161/104
f 14/121/104 413/156/104 415/158/104 361/122/104
f 17/130/39 412/159/39 414/149/39 394/149/39 396/130/39
f 65/33/111 417/157/111 416/160/111 364/88/111 69/29/111
f 61/37/112 361/85/112 415/162/112 417/157/112 65/33/112
f 418/163/104 3/104/104 350/107/104 422/164/104
f 420/148/52 419/165/52 27/146/52 406/146/52 378/148/52
f 27/146/104 419/165/104 421/166/104 374/147/104
f 3/104/53 418/163/53 420/148/53 378/148/53 377/104/53
f 30/69/113 423/167/113 422/168/113 350/75/113 33/65/113
f 89/7/114 374/97/114 421/169/114 423/170/114 30/8/114
f 419/165/115 420/148/115 423/170/115 421/166/115
f 420/148/116 418/163/116 422/168/116 423/170/116
f 426/171/117 424/172/117 428/173/117 429/174/117
f 425/175/118 426/171/118 429/174/118 427/176/118
f 12/118/37 424/172/37 426/171/37 391/153/37 389/118/37
f 424/172/103 12/118/103 359/119/103 428/177/103
f 426/171/36 425/175/36 15/125/36 393/125/36 391/153/36
f 15/125/103 425/175/103 427/176/103 362/126/103
f 359/83/119 58/40/119 62/36/119 429/174/119 428/173/119
f 427/178/120 429/174/120 62/36/120 66/32/120 362/86/120
f 432/152/121 430/179/121 434/180/121 435/181/121
f 431/182/122 432/152/122 435/181/122 433/183/122
f 432/152/60 431/182/60 7/110/60 382/110/60 384/152/60
f 430/179/104 10/151/104 357/184/104 434/185/104
f 7/110/104 431/182/104 433/183/104 354/111/104
f 10/151/63 430/179/63 432/152/63 384/152/63 386/151/63
f 45/53/123 435/181/123 434/180/123 357/155/123 49/49/123
f 41/57/124 354/78/124 433/186/124 435/181/124 45/53/124
f 437/3/71 438/4/71 439/5/71 436/6/71
f 441/7/72 442/8/72 443/9/72 440/10/72
f 445/11/73 437/3/73 436/6/73 444/12/73
f 447/13/74 441/7/74 440/10/74 446/14/74
f 449/15/75 445/11/75 444/12/75 448/16/75
f 451/17/76 447/13/76 446/14/76 450/18/76
f 453/19/77 449/15/77 448/16/77 452/20/77
f 455/21/78 451/17/78 450/18/78 454/22/78
f 457/23/79 453/19/79 452/20/79 456/24/79
f 459/25/80 455/21/80 454/22/80 458/26/80
f 461/27/81 457/23/81 456/24/81 460/28/81
f 463/29/82 459/25/82 458/26/82 462/30/82
f 465/31/83 461/27/83 460/28/83 464/32/83
f 467/33/84 463/29/84 462/30/84 466/34/84
f 469/35/85 465/31/85 464/32/85 468/36/85
f 471/37/86 467/33/86 466/34/86 470/38/86
f 473/39/87 469/35/87 468/36/87 472/40/87
f 475/41/88 471/37/88 470/38/88 474/42/88
f 477/43/89 473/39/89 472/40/89 476/44/89
f 479/45/90 475/41/90 474/42/90 478/46/90
f 481/47/91 477/43/91 476/44/91 480/48/91
f 483/49/92 479/45/92 478/46/92 482/50/92
f 485/51/93 481/47/93 480/48/93 484/52/93
f 487/53/94 483/49/94 482/50/94 486/54/94
f 489/55/95 485/51/95 484/52/95 488/56/95
f 491/57/96 487/53/96 486/54/96 490/58/96
f 493/59/97 489/55/97 488/56/97 492/60/97
f 495/61/98 491/57/98 490/58/98 494/62/98
f 497/63/99 493/59/99 492/60/99 496/64/99
f 499/65/100 495/61/100 494/62/100 498/66/100
f 438/67/101 497/63/101 496/64/101 439/68/101
f 442/69/102 499/65/102 498/66/102 443/70/102
f 501/3/71 502/4/71 503/5/71 500/6/71
f 505/7/72 506/8/72 507/9/72 504/10/72
f 509/11/73 501/3/73 500/6/73 508/12/73
f 511/13/74 505/7/74 504/10/74 510/14/74
f 513/15/75 509/11/75 508/12/75 512/16/75
f 515/17/76 511/13/76 510/14/76 514/18/76
f 517/19/77 513/15/77 512/16/77 516/20/77
f 519/21/78 515/17/78 514/18/78 518/22/78
f 521/23/79 517/19/79 516/20/79 520/24/79
f 523/25/80 519/21/80 518/22/80 522/26/80
f 525/27/81 521/23/81 520/24/81 524/28/81
f 527/29/82 523/25/82 522/26/82 526/30/82
f 529/31/83 525/27/83 524/28/83 528/32/83
f 531/33/84 527/29/84 526/30/84 530/34/84
f 533/35/85 529/31/85 528/32/85 532/36/85
f 535/37/86 531/33/86 530/34/86 534/38/86
f 537/39/87 533/35/87 532/36/87 536/40/87
f 539/41/88 535/37/88 534/38/88 538/42/88
f 541/43/89 537/39/89 536/40/89 540/44/89
f 543/45/90 539/41/90 538/42/90 542/46/90
f 545/47/91 541/43/91 540/44/91 544/48/91
f 547/49/92 543/45/92 542/46/92 546/50/92
f 549/51/93 545/47/93 544/48/93 548/52/93
f 551/53/94 547/49/94 546/50/94 550/54/94
f 553/55/95 549/51/95 548/52/95 552/56/95
f 555/57/96 551/53/96 550/54/96 554/58/96
f 557/59/97 553/55/97 552/56/97 556/60/97
f 559/61/98 555/57/98 554/58/98 558/62/98
f 561/63/99 557/59/99 556/60/99 560/64/99
f 563/65/100 559/61/100 558/62/100 562/66/100
f 502/67/101 561/63/101 560/64/101 503/68/101
f 506/69/102 563/65/102 562/66/102 507/70/102
f 565/3/71 566/4/71 567/5/71 564/6/71
f 569/7/72 570/8/72 571/9/72 568/10/72
f 573/11/73 565/3/73 564/6/73 572/12/73
f 575/13/74 569/7/74 568/10/74 574/14/74
f 577/15/75 573/11/75 572/12/75 576/16/75
f 579/17/76 575/13/76 574/14/76 578/18/76
f 581/19/77 577/15/77 576/16/77 580/20/77
f 583/21/78 579/17/78 578/18/78 582/22/78
f 585/23/79 581/19/79 580/20/79 584/24/79
f 587/25/80 583/21/80 582/22/80 586/26/80
f 589/27/81 585/23/81 584/24/81 588/28/81
f 591/29/82 587/25/82 586/26/82 590/30/82
f 593/31/83 589/27/83 588/28/83 592/32/83
f 595/33/84 591/29/84 590/30/84 594/34/84
f 597/35/85 593/31/85 592/32/85 596/36/85
f 599/37/86 595/33/86 594/34/86 598/38/86
f 601/39/87 597/35/87 596/36/87 600/40/87
f 603/41/88 599/37/88 598/38/88 602/42/88
f 605/43/89 601/39/89 600/40/89 604/44/89
f 607/45/90 603/41/90 602/42/90 606/46/90
f 609/47/91 605/43/91 604/44/91 608/48/91
f 611/49/92 607/45/92 606/46/92 610/50/92
f 613/51/93 609/47/93 608/48/93 612/52/93
f 615/53/94 611/49/94 610/50/94 614/54/94
f 617/55/95 613/51/95 612/52/95 616/56/95
f 619/57/96 615/53/96 614/54/96 618/58/96
f 621/59/97 617/55/97 616/56/97 620/60/97
f 623/61/98 619/57/98 618/58/98 622/62/98
f 625/63/99 621/59/99 620/60/99 624/64/99
f 627/65/100 623/61/100 622/62/100 626/66/100
f 566/67/101 625/63/101 624/64/101 567/68/101
f 570/69/102 627/65/102 626/66/102 571/70/102
f 629/3/71 630/4/71 631/5/71 628/6/71
f 633/7/72 634/8/72 635/9/72 632/10/72
f 637/11/73 629/3/73 628/6/73 636/12/73
f 639/13/74 633/7/74 632/10/74 638/14/74
f 641/15/75 637/11/75 636/12/75 640/16/75
f 643/17/76 639/13/76 638/14/76 642/18/76
f 645/19/77 641/15/77 640/16/77 644/20/77
f 647/21/78 643/17/78 642/18/78 646/22/78
f 649/23/79 645/19/79 644/20/79 648/24/79
f 651/25/80 647/21/80 646/22/80 650/26/80
f 653/27/81 649/23/81 648/24/81 652/28/81
f 655/29/82 651/25/82 650/26/82 654/30/82
f 657/31/83 653/27/83 652/28/83 656/32/83
f 659/33/84 655/29/84 654/30/84 658/34/84
f 661/35/85 657/31/85 656/32/85 660/36/85
f 663/37/86 659/33/86 658/34/86 662/38/86
f 665/39/87 661/35/87 660/36/87 664/40/87
f 667/41/88 663/37/88 662/38/88 666/42/88
f 669/43/89 665/39/89 664/40/89 668/44/89
f 671/45/90 667/41/90 666/42/90 670/46/90
f 673/47/91 669/43/91 668/44/91 672/48/91
f 675/49/92 671/45/92 670/46/92 674/50/92
f 677/51/93 673/47/93 672/48/93 676/52/93
f 679/53/94 675/49/94 674/50/94 678/54/94
f 681/55/95 677/51/95 676/52/95 680/56/95
f 683/57/96 679/53/96 678/54/96 682/58/96
f 685/59/97 681/55/97 680/56/97 684/60/97
f 687/61/98 683/57/98 682/58/98 686/62/98
f 689/63/99 685/59/99 684/60/99 688/64/99
f 691/65/100 687/61/100 686/62/100 690/66/100
f 630/67/101 689/63/101 688/64/101 631/68/101
f 634/69/102 691/65/102 690/66/102 635/70/102
f 693/3/71 694/4/71 695/5/71 692/6/71
f 697/7/72 698/8/72 699/9/72 696/10/72
f 701/11/73 693/3/73 692/6/73 700/12/73
f 703/13/74 697/7/74 696/10/74 702/14/74
f 705/15/75 701/11/75 700/12/75 704/16/75
f 707/17/76 703/13/76 702/14/76 706/18/76
f 709/19/77 705/15/77 704/16/77 708/20/77
f 711/21/78 707/17/78 706/18/78 710/22/78
f 713/23/79 709/19/79 708/20/79 712/24/79
f 715/25/80 711/21/80 710/22/80 714/26/80
f 717/27/81 713/23/81 712/24/81 716/28/81
f 719/29/82 715/25/82 714/26/82 718/30/82
f 721/31/83 717/27/83 716/28/83 720/32/83
f 723/33/84 719/29/84 718/30/84 722/34/84
f 725/35/85 721/31/85 720/32/85 724/36/85
f 727/37/86 723/33/86 722/34/86 726/38/86
f 729/39/87 725/35/87 724/36/87 728/40/87
f 731/41/88 727/37/88 726/38/88 730/42/88
f 733/43/89 729/39/89 728/40/89 732/44/89
f 735/45/90 731/41/90 730/42/90 734/46/90
f 737/47/91 733/43/91 732/44/91 736/48/91
f 739/49/92 735/45/92 734/46/92 738/50/92
f 741/51/93 737/47/93 736/48/93 740/52/93
f 743/53/94 739/49/94 738/50/94 742/54/94
f 745/55/95 741/51/95 740/52/95 744/56/95
f 747/57/96 743/53/96 742/54/96 746/58/96
f 749/59/97 745/55/97 744/56/97 748/60/97
f 751/61/98 747/57/98 746/58/98 750/62/98
f 753/63/99 749/59/99 748/60/99 752/64/99
f 755/65/100 751/61/100 750/62/100 754/66/100
f 694/67/101 753/63/101 752/64/101 695/68/101
f 698/69/102 755/65/102 754/66/102 699/70/102
